<?xml version="1.0" standalone="no"?>
<!DOCTYPE svg PUBLIC "-//W3C//DTD SVG 20010904//EN"
 "http://www.w3.org/TR/2001/REC-SVG-20010904/DTD/svg10.dtd">
<svg version="1.0" xmlns="http://www.w3.org/2000/svg"
 width="700.000000pt" height="700.000000pt" viewBox="0 0 700.000000 700.000000"
 preserveAspectRatio="xMidYMid meet">
<metadata>
Created by potrace 1.14, written by Peter Selinger 2001-2017
</metadata>
<g transform="translate(0.000000,700.000000) scale(0.100000,-0.100000)"
fill="#000000" stroke="none">
<path d="M5417 5358 c-20 -4 -54 -16 -75 -27 -20 -10 -207 -188 -414 -395
l-376 -377 -23 33 c-113 160 -349 154 -453 -11 -32 -50 -53 -140 -33 -142 17
-1 110 -1 122 0 6 1 16 16 23 34 36 101 172 117 225 27 9 -15 17 -36 17 -45 0
-10 -145 -162 -322 -339 l-323 -322 -1302 1 c-1185 0 -1302 -1 -1306 -16 -6
-22 0 -504 6 -559 3 -25 9 -76 12 -115 3 -38 8 -77 10 -85 2 -8 6 -40 9 -70
22 -214 118 -544 204 -699 129 -235 302 -368 512 -396 54 -7 58 -10 161 -115
l106 -107 1063 0 1064 0 109 108 c103 102 112 108 161 114 115 16 235 72 329
155 87 76 194 246 254 405 27 69 67 201 78 253 2 9 8 37 14 62 15 66 20 97 32
180 5 41 12 86 14 100 3 14 7 54 10 90 4 36 8 81 11 100 10 65 13 574 4 585
-6 7 -110 10 -309 10 -166 0 -301 2 -301 5 0 3 53 59 119 124 l118 118 30 -16
c35 -17 63 -56 63 -86 0 -18 6 -20 75 -20 72 0 75 1 75 23 0 50 -33 118 -79
165 l-47 47 352 355 c318 321 353 360 372 410 40 110 14 223 -75 316 -105 111
-198 147 -316 122z m119 -148 c15 -6 51 -35 80 -65 43 -43 54 -62 59 -99 5
-28 3 -57 -4 -74 -6 -15 -270 -286 -586 -602 l-575 -575 -255 0 c-140 0 -255
1 -255 2 0 2 313 316 696 699 390 390 710 702 727 709 39 17 76 19 113 5z
m-340 -1782 c-3 -123 -8 -236 -11 -253 -2 -16 -9 -75 -16 -130 -9 -87 -22
-169 -44 -280 -38 -195 -114 -393 -199 -522 -102 -156 -237 -239 -397 -244
-47 -2 -50 -5 -156 -111 l-108 -108 -1004 0 -1003 0 -99 100 c-54 54 -107 103
-116 108 -10 5 -36 10 -58 10 -228 8 -412 194 -526 534 -50 147 -96 376 -114
568 -4 36 -9 79 -11 95 -2 17 -6 126 -10 243 l-7 212 1943 0 1943 0 -7 -222z"/>
<path d="M3577 5025 c-88 -30 -165 -110 -182 -187 -5 -22 -11 -28 -23 -23 -76
31 -161 30 -229 -1 -81 -39 -153 -144 -153 -223 0 -28 0 -28 125 -22 13 1 21
8 22 20 4 52 65 101 125 101 61 0 97 -33 121 -111 4 -11 15 -15 44 -12 29 2
48 -3 71 -20 l31 -23 -20 -30 c-27 -39 -39 -70 -45 -116 l-6 -38 75 0 c74 0
75 0 80 28 8 41 37 71 81 86 65 23 138 -14 154 -78 8 -29 12 -31 63 -36 88 -8
92 -5 85 46 -3 24 -12 57 -21 73 -17 34 -72 93 -99 108 -17 10 -17 12 6 49 49
77 59 155 33 235 -21 62 -92 142 -147 164 -55 23 -142 27 -191 10z m138 -151
c45 -21 70 -70 62 -124 -13 -102 -129 -143 -205 -71 -36 35 -48 79 -32 124 24
76 100 107 175 71z"/>
<path d="M2291 4733 c-61 -22 -135 -97 -157 -160 l-18 -50 -45 32 c-56 39
-101 55 -156 55 -134 0 -250 -98 -271 -227 l-7 -43 77 0 c74 0 76 1 76 25 0
15 14 39 36 61 35 35 39 36 92 32 47 -4 60 -10 84 -37 15 -17 28 -42 28 -56 0
-24 3 -25 63 -25 59 0 65 -2 78 -27 12 -22 12 -27 1 -31 -54 -18 -132 -136
-132 -199 l0 -33 73 0 c68 0 73 2 74 22 3 32 34 70 74 90 63 32 150 -8 167
-76 8 -31 9 -31 82 -34 l73 -3 -7 48 c-3 26 -19 69 -36 96 -16 26 -26 47 -22
47 4 0 25 16 46 35 33 29 47 35 87 35 44 0 47 2 53 31 7 38 56 85 94 91 39 6
85 -8 106 -31 17 -19 17 -21 -16 -49 -57 -51 -83 -115 -82 -202 1 -86 17 -130
71 -186 82 -84 214 -106 316 -54 202 102 197 389 -8 486 -27 13 -65 24 -82 24
-25 0 -36 6 -48 28 -26 47 -59 78 -118 106 -49 24 -66 28 -124 24 -45 -2 -83
-11 -111 -26 -51 -26 -52 -26 -52 -7 0 26 -37 91 -72 125 -71 71 -191 98 -287
63z m166 -153 c63 -38 69 -146 12 -194 -17 -14 -34 -26 -37 -27 -4 0 -19 -3
-34 -5 -41 -7 -102 29 -122 71 -53 112 74 221 181 155z m680 -326 c103 -66 56
-227 -66 -226 -134 2 -170 185 -47 237 34 15 81 10 113 -11z"/>
<path d="M1563 4189 c-120 -22 -214 -117 -225 -229 l-3 -35 72 -3 71 -3 7 31
c7 33 58 89 81 91 8 1 24 2 37 3 53 5 127 -61 127 -113 0 -7 27 -11 75 -11
l75 0 -6 38 c-22 150 -166 256 -311 231z"/>
</g>
</svg>
